<svg width="512" height="512" viewBox="0 0 512 512" fill="none" xmlns="http://www.w3.org/2000/svg">
  <rect width="512" height="512" rx="120" fill="#0A396C"/>
  <path d="M112 156C112 137.222 127.222 122 146 122H286.515C295.53 122 304.176 125.58 310.55 131.95L375.05 196.45C381.42 202.824 385 211.47 385 220.485V366C385 384.778 369.778 400 351 400H146C127.222 400 112 384.778 112 366V156Z" fill="url(#paint0_linear_5_2)"/>
  <path d="M289 122V188C289 206.778 304.222 222 323 222H385" fill="#7DB2FF" fill-opacity="0.7"/>
  <path d="M183 287L228.353 332.353C232.259 336.259 238.591 336.259 242.496 332.353L326 248.85" stroke="white" stroke-width="34" stroke-linecap="round" stroke-linejoin="round"/>
  <defs>
    <linearGradient id="paint0_linear_5_2" x1="129" y1="122" x2="392" y2="391" gradientUnits="userSpaceOnUse">
      <stop stop-color="#2A5084"/>
      <stop offset="1" stop-color="#0F2D58"/>
    </linearGradient>
  </defs>
</svg>
